<mxfile host="app.diagrams.net" modified="2024-02-12T03:39:07.759Z" agent="Mozilla/5.0 (Windows NT 10.0; Win64; x64) AppleWebKit/537.36 (KHTML, like Gecko) Chrome/121.0.0.0 Safari/537.36" etag="ijnP3UnH7kCXmGxcjNDN" version="23.1.2" type="github">
  <diagram name="Halaman-1" id="h9skDpN4GiDbP87BL9k5">
    <mxGraphModel dx="1294" dy="589" grid="1" gridSize="10" guides="1" tooltips="1" connect="1" arrows="1" fold="1" page="1" pageScale="1" pageWidth="827" pageHeight="1169" math="0" shadow="0">
      <root>
        <mxCell id="0" />
        <mxCell id="1" parent="0" />
        <mxCell id="MZtCbrzWvRzduZUNpSsB-16" value="" style="edgeStyle=orthogonalEdgeStyle;rounded=0;orthogonalLoop=1;jettySize=auto;html=1;" edge="1" parent="1" source="MZtCbrzWvRzduZUNpSsB-1" target="MZtCbrzWvRzduZUNpSsB-2">
          <mxGeometry relative="1" as="geometry" />
        </mxCell>
        <mxCell id="MZtCbrzWvRzduZUNpSsB-1" value="User membuka aplikasi" style="rounded=0;whiteSpace=wrap;html=1;" vertex="1" parent="1">
          <mxGeometry x="280" y="80" width="120" height="60" as="geometry" />
        </mxCell>
        <mxCell id="MZtCbrzWvRzduZUNpSsB-6" style="edgeStyle=orthogonalEdgeStyle;rounded=0;orthogonalLoop=1;jettySize=auto;html=1;exitX=0;exitY=0.5;exitDx=0;exitDy=0;entryX=0.5;entryY=0;entryDx=0;entryDy=0;" edge="1" parent="1" source="MZtCbrzWvRzduZUNpSsB-2" target="MZtCbrzWvRzduZUNpSsB-3">
          <mxGeometry relative="1" as="geometry" />
        </mxCell>
        <mxCell id="MZtCbrzWvRzduZUNpSsB-7" style="edgeStyle=orthogonalEdgeStyle;rounded=0;orthogonalLoop=1;jettySize=auto;html=1;" edge="1" parent="1" source="MZtCbrzWvRzduZUNpSsB-2" target="MZtCbrzWvRzduZUNpSsB-4">
          <mxGeometry relative="1" as="geometry" />
        </mxCell>
        <mxCell id="MZtCbrzWvRzduZUNpSsB-2" value="Memilih &lt;br&gt;Menu" style="rhombus;whiteSpace=wrap;html=1;" vertex="1" parent="1">
          <mxGeometry x="300" y="170" width="80" height="80" as="geometry" />
        </mxCell>
        <mxCell id="MZtCbrzWvRzduZUNpSsB-23" style="edgeStyle=orthogonalEdgeStyle;rounded=0;orthogonalLoop=1;jettySize=auto;html=1;exitX=0.5;exitY=1;exitDx=0;exitDy=0;entryX=0.5;entryY=0;entryDx=0;entryDy=0;" edge="1" parent="1" source="MZtCbrzWvRzduZUNpSsB-3" target="MZtCbrzWvRzduZUNpSsB-21">
          <mxGeometry relative="1" as="geometry" />
        </mxCell>
        <mxCell id="MZtCbrzWvRzduZUNpSsB-3" value="Fitur Pinger" style="rounded=0;whiteSpace=wrap;html=1;" vertex="1" parent="1">
          <mxGeometry x="150" y="260" width="120" height="60" as="geometry" />
        </mxCell>
        <mxCell id="MZtCbrzWvRzduZUNpSsB-24" style="edgeStyle=orthogonalEdgeStyle;rounded=0;orthogonalLoop=1;jettySize=auto;html=1;exitX=0.5;exitY=1;exitDx=0;exitDy=0;" edge="1" parent="1" source="MZtCbrzWvRzduZUNpSsB-4" target="MZtCbrzWvRzduZUNpSsB-22">
          <mxGeometry relative="1" as="geometry" />
        </mxCell>
        <mxCell id="MZtCbrzWvRzduZUNpSsB-4" value="Fitur Port Scanner" style="rounded=0;whiteSpace=wrap;html=1;" vertex="1" parent="1">
          <mxGeometry x="414" y="260" width="120" height="60" as="geometry" />
        </mxCell>
        <mxCell id="MZtCbrzWvRzduZUNpSsB-26" style="edgeStyle=orthogonalEdgeStyle;rounded=0;orthogonalLoop=1;jettySize=auto;html=1;exitX=0.5;exitY=1;exitDx=0;exitDy=0;entryX=0;entryY=0.5;entryDx=0;entryDy=0;" edge="1" parent="1" source="MZtCbrzWvRzduZUNpSsB-21" target="MZtCbrzWvRzduZUNpSsB-25">
          <mxGeometry relative="1" as="geometry" />
        </mxCell>
        <mxCell id="MZtCbrzWvRzduZUNpSsB-21" value="Memproses Ping menggunakan shell&amp;nbsp;" style="rounded=0;whiteSpace=wrap;html=1;" vertex="1" parent="1">
          <mxGeometry x="150" y="340" width="120" height="60" as="geometry" />
        </mxCell>
        <mxCell id="MZtCbrzWvRzduZUNpSsB-27" style="edgeStyle=orthogonalEdgeStyle;rounded=0;orthogonalLoop=1;jettySize=auto;html=1;exitX=0.5;exitY=1;exitDx=0;exitDy=0;entryX=1;entryY=0.5;entryDx=0;entryDy=0;" edge="1" parent="1" source="MZtCbrzWvRzduZUNpSsB-22" target="MZtCbrzWvRzduZUNpSsB-25">
          <mxGeometry relative="1" as="geometry" />
        </mxCell>
        <mxCell id="MZtCbrzWvRzduZUNpSsB-22" value="Memproses Scanner menggunakan Socket&amp;nbsp;" style="rounded=0;whiteSpace=wrap;html=1;" vertex="1" parent="1">
          <mxGeometry x="414" y="340" width="120" height="60" as="geometry" />
        </mxCell>
        <mxCell id="MZtCbrzWvRzduZUNpSsB-36" style="edgeStyle=orthogonalEdgeStyle;rounded=0;orthogonalLoop=1;jettySize=auto;html=1;exitX=0.5;exitY=1;exitDx=0;exitDy=0;" edge="1" parent="1" source="MZtCbrzWvRzduZUNpSsB-25" target="MZtCbrzWvRzduZUNpSsB-28">
          <mxGeometry relative="1" as="geometry" />
        </mxCell>
        <mxCell id="MZtCbrzWvRzduZUNpSsB-25" value="Proses selesai" style="rounded=0;whiteSpace=wrap;html=1;" vertex="1" parent="1">
          <mxGeometry x="280" y="440" width="120" height="60" as="geometry" />
        </mxCell>
        <mxCell id="MZtCbrzWvRzduZUNpSsB-30" style="edgeStyle=orthogonalEdgeStyle;rounded=0;orthogonalLoop=1;jettySize=auto;html=1;exitX=0;exitY=0.5;exitDx=0;exitDy=0;" edge="1" parent="1" source="MZtCbrzWvRzduZUNpSsB-28" target="MZtCbrzWvRzduZUNpSsB-29">
          <mxGeometry relative="1" as="geometry">
            <Array as="points">
              <mxPoint x="210" y="560" />
              <mxPoint x="210" y="650" />
            </Array>
          </mxGeometry>
        </mxCell>
        <mxCell id="MZtCbrzWvRzduZUNpSsB-39" value="Tidak" style="edgeLabel;html=1;align=center;verticalAlign=middle;resizable=0;points=[];" vertex="1" connectable="0" parent="MZtCbrzWvRzduZUNpSsB-30">
          <mxGeometry x="-0.6275" relative="1" as="geometry">
            <mxPoint as="offset" />
          </mxGeometry>
        </mxCell>
        <mxCell id="MZtCbrzWvRzduZUNpSsB-37" style="edgeStyle=orthogonalEdgeStyle;rounded=0;orthogonalLoop=1;jettySize=auto;html=1;exitX=1;exitY=0.5;exitDx=0;exitDy=0;entryX=1;entryY=0;entryDx=0;entryDy=0;" edge="1" parent="1" source="MZtCbrzWvRzduZUNpSsB-28" target="MZtCbrzWvRzduZUNpSsB-2">
          <mxGeometry relative="1" as="geometry">
            <mxPoint x="540" y="150" as="targetPoint" />
            <Array as="points">
              <mxPoint x="580" y="560" />
              <mxPoint x="580" y="170" />
              <mxPoint x="360" y="170" />
            </Array>
          </mxGeometry>
        </mxCell>
        <mxCell id="MZtCbrzWvRzduZUNpSsB-38" value="Ya" style="edgeLabel;html=1;align=center;verticalAlign=middle;resizable=0;points=[];" vertex="1" connectable="0" parent="MZtCbrzWvRzduZUNpSsB-37">
          <mxGeometry x="-0.8423" y="-1" relative="1" as="geometry">
            <mxPoint as="offset" />
          </mxGeometry>
        </mxCell>
        <mxCell id="MZtCbrzWvRzduZUNpSsB-28" value="Ulangi &lt;br&gt;proses" style="rhombus;whiteSpace=wrap;html=1;" vertex="1" parent="1">
          <mxGeometry x="300" y="520" width="80" height="80" as="geometry" />
        </mxCell>
        <mxCell id="MZtCbrzWvRzduZUNpSsB-29" value="Aplikasi Berakhir" style="rounded=0;whiteSpace=wrap;html=1;" vertex="1" parent="1">
          <mxGeometry x="280" y="620" width="120" height="60" as="geometry" />
        </mxCell>
      </root>
    </mxGraphModel>
  </diagram>
</mxfile>
